# xmcd
#
# Track frame offsets: 
#        150
#        23432
#        39116
#        56143
#        74010
#        91895
#        110083
#        128824
#        143031
#        162266
#
# Disc length: 2431 seconds
#
# Revision: 3
# Processed by: cddbd v1.5.2PL0 Copyright (c) Steve Scherf et al.
# Submitted via: ExactAudioCopyFreeDBPlugin 1.0
#
DISCID=83097d0a
DTITLE=Michel Jonasz - Tristesse
DYEAR=1983
DGENRE=Jazz
TTITLE0=Tristesse
TTITLE1=Big boss
TTITLE2=De l'amour qui s'évapore
TTITLE3=Une seule journée passée sans elle
TTITLE4=Lucille
TTITLE5=Minuit sonne
TTITLE6=La chanson qui détend l'atosmphère
TTITLE7=Rock à gogo
TTITLE8=Quand elle part j'ai l'coeur serré
TTITLE9=Tic tac
EXTD=
EXTT0=
EXTT1=
EXTT2=
EXTT3=
EXTT4=
EXTT5=
EXTT6=
EXTT7=
EXTT8=
EXTT9=
PLAYORDER=
